# xmcd
#
# Track frame offsets: 
#        182
#        7992
#        19025
#        29372
#        40677
#        55587
#        64530
#        77075
#        92387
#        104505
#        117085
#        136197
#        152362
#        162845
#        175060
#        187442
#        196152
#        204787
#
# Disc length: 2912 seconds
#
# Revision: 1
# Processed by: cddbd v1.5.2PL0 Copyright (c) Steve Scherf et al.
# Submitted via: ExactAudioCopy v1.0b1
#
DISCID=d10b5e12
DTITLE=Various Artist - Selection OF Country Gentlemen  (784) CD 2
DYEAR=1997
DGENRE=Country
TTITLE0=George Jones - Jambalaya
TTITLE1=Waylon Jennings - Sally Was A Good Old Girl
TTITLE2=Frankie Laine - Mule Skinner Blues
TTITLE3=Johnny Cash - Mean Eyed Cal
TTITLE4=Willie Nelson - Face Of A Fighter
TTITLE5=Guy Mitchell - Singing The Blues
TTITLE6=Freddy Fender - Silver Wings
TTITLE7=Ray Pillov - How Do I Hide From A Memory
TTITLE8=Gene Simmons - Catahoula Cur Dog
TTITLE9=Johnny Paycheck - Geogia In A Jug
TTITLE10=Dave Travis - Sweet Country Music
TTITLE11=Rex Allen Jr. - Memory Train
TTITLE12=Carl Perkins - What Am I Living For
TTITLE13=Ray Price - Rain And Tears
TTITLE14=Bobby Helms - Fraulein
TTITLE15=Ferlin Husky - Wings Of A Dove
TTITLE16=Conway Twitty - Blue Is The Way That I Feel
TTITLE17=Freddy Fender - Wasted Days And Wasted Nights
EXTD=
EXTT0=
EXTT1=
EXTT2=
EXTT3=
EXTT4=
EXTT5=
EXTT6=
EXTT7=
EXTT8=
EXTT9=
EXTT10=
EXTT11=
EXTT12=
EXTT13=
EXTT14=
EXTT15=
EXTT16=
EXTT17=
PLAYORDER=
